<svg id="Capa_1" enable-background="new 0 0 512 512" height="512" viewBox="0 0 512 512" width="512" xmlns="http://www.w3.org/2000/svg"><g><path d="m256 86c-93.738 0-170 76.262-170 170s76.262 170 170 170 170-76.262 170-170-76.262-170-170-170zm0 320c-82.71 0-150-67.29-150-150s67.29-150 150-150 150 67.29 150 150-67.29 150-150 150z"/><path d="m256 60c5.522 0 10-4.478 10-10v-40c0-5.522-4.478-10-10-10-5.523 0-10 4.478-10 10v40c0 5.522 4.477 10 10 10z"/><path d="m256 452c-5.523 0-10 4.478-10 10v40c0 5.522 4.477 10 10 10 5.522 0 10-4.478 10-10v-40c0-5.522-4.478-10-10-10z"/><path d="m502 246h-40c-5.522 0-10 4.478-10 10s4.478 10 10 10h40c5.522 0 10-4.478 10-10s-4.478-10-10-10z"/><path d="m60 256c0-5.522-4.477-10-10-10h-40c-5.523 0-10 4.478-10 10s4.477 10 10 10h40c5.523 0 10-4.478 10-10z"/><path d="m144.34 82.599c1.852 3.208 5.213 5.002 8.669 5.002 1.696 0 3.416-.433 4.991-1.342 4.783-2.762 6.422-8.877 3.66-13.66l-20-34.641c-2.762-4.783-8.878-6.423-13.66-3.66-4.783 2.762-6.422 8.877-3.66 13.66z"/>
<path d="m367.66 429.401c-2.762-4.782-8.878-6.421-13.66-3.66-4.783 2.762-6.422 8.877-3.66 13.66l20 34.641c1.853 3.208 5.213 5.002 8.67 5.002 1.696 0 3.416-.433 4.99-1.342 4.783-2.762 6.422-8.877 3.66-13.66z"/><path d="m434.411 163.002c1.696 0 3.416-.433 4.99-1.342l34.641-20c4.783-2.762 6.422-8.877 3.66-13.66-2.761-4.781-8.877-6.422-13.66-3.66l-34.641 20c-4.783 2.762-6.422 8.877-3.66 13.66 1.853 3.208 5.213 5.002 8.67 5.002z"/><path d="m72.599 350.34-34.641 20c-4.783 2.762-6.422 8.877-3.66 13.66 1.852 3.208 5.213 5.002 8.669 5.002 1.696 0 3.416-.433 4.991-1.342l34.641-20c4.783-2.762 6.422-8.877 3.66-13.66-2.761-4.783-8.879-6.422-13.66-3.66z"/><path d="m37.958 141.66 34.641 20c1.575.909 3.294 1.342 4.991 1.342 3.456 0 6.817-1.794 8.669-5.002 2.762-4.783 1.123-10.898-3.66-13.66l-34.641-20c-4.782-2.76-10.898-1.122-13.66 3.66-2.762 4.783-1.123 10.898 3.66 13.66z"/><path d="m474.042 370.34-34.641-20c-4.785-2.761-10.898-1.122-13.66 3.66-2.762 4.783-1.123 10.898 3.66 13.66l34.641 20c1.575.909 3.294 1.342 4.99 1.342 3.456 0 6.817-1.794 8.67-5.002 2.762-4.783 1.123-10.898-3.66-13.66z"/><path d="m354 86.259c1.575.909 3.294 1.342 4.99 1.342 3.456 0 6.817-1.794 8.67-5.002l20-34.641c2.762-4.783 1.123-10.898-3.66-13.66-4.784-2.763-10.898-1.123-13.66 3.66l-20 34.641c-2.762 4.783-1.123 10.898 3.66 13.66z"/><path d="m158 425.741c-4.781-2.76-10.898-1.123-13.66 3.66l-20 34.641c-2.762 4.783-1.123 10.898 3.66 13.66 1.575.909 3.294 1.342 4.991 1.342 3.456 0 6.817-1.794 8.669-5.002l20-34.641c2.762-4.783 1.123-10.898-3.66-13.66z"/><path d="m346.676 198.687c-5.24-1.742-10.901 1.096-12.643 6.338l-24.069 72.452-25.254-72.756c-1.811-5.217-7.507-7.979-12.727-6.168-5.218 1.812-7.979 7.509-6.168 12.727l32.847 94.626c1.723 4.851 6.322 8.095 11.464 8.095h.083c5.175-.035 9.771-3.351 11.459-8.316l31.346-94.354c1.741-5.243-1.097-10.903-6.338-12.644z"/><path d="m235.184 198c-5.523 0-10 4.478-10 10v65.989c0 4.77-1.305 11.768-12.591 17.451-3.374 1.698-7.176 2.56-11.305 2.56-.014 0-.028 0-.042 0-4.629-.006-8.661-1.147-12.325-3.487-7.418-4.74-10.444-9.507-10.444-16.454v-66.059c0-5.522-4.477-10-10-10s-10 4.478-10 10v66.059c0 13.953 6.436 24.849 19.677 33.309 6.873 4.39 14.633 6.621 23.064 6.633h.071c7.281 0 14.111-1.58 20.299-4.697 19.501-9.82 23.595-24.624 23.595-35.313v-65.991c.001-5.522-4.476-10-9.999-10z"/></g></svg>
